<?xml version="1.0" encoding="utf-8"?>
<!-- Generator: Adobe Illustrator 19.0.0, SVG Export Plug-In . SVG Version: 6.00 Build 0)  -->
<svg version="1.1" id="Layer_1" xmlns="http://www.w3.org/2000/svg" xmlns:xlink="http://www.w3.org/1999/xlink" x="0px" y="0px"
	 viewBox="0 0 512 512" style="enable-background:new 0 0 512 512;" xml:space="preserve">
<style type="text/css">
	.st0{fill:#FFFFFF;}
	.st1{fill:#1E232F;}
</style>
<rect id="XMLID_1_" class="st0" width="512" height="512"/>
<path id="XMLID_8_" class="st1" d="M0,0v512h512V0H0z M254.1,427c-50.8,0-102-14.4-132.4-35.7c-2.5-1.7-3.4-4.9-2.1-7.7l21.2-47.1
	c1.6-3.5,5.9-4.7,9-2.6c28.1,18.4,67.2,30.9,104.7,30.9c46,0,64.7-15.3,64.7-36c0-62.8-195.1-19.7-195.1-144.3
	c0-57,46-104.5,141.4-104.5c40.1,0,81.2,9.1,111.9,26.9c2.7,1.5,3.8,4.8,2.6,7.7l-19.3,47.6c-1.4,3.4-5.4,4.9-8.7,3.1
	c-29.2-15.5-59.1-23-86.9-23c-46,0-63.8,17.3-63.8,38.4c0,61.8,195.1,19.2,195.1,142.4C396.5,379.1,350,427,254.1,427z"/>
</svg>
