<?xml version="1.0" standalone="no"?>
<!DOCTYPE svg PUBLIC "-//W3C//DTD SVG 20010904//EN"
 "http://www.w3.org/TR/2001/REC-SVG-20010904/DTD/svg10.dtd">
<svg version="1.0" xmlns="http://www.w3.org/2000/svg"
 width="512.000000pt" height="512.000000pt" viewBox="0 0 512.000000 512.000000"
 preserveAspectRatio="xMidYMid meet">
<metadata>
Created by potrace 1.11, written by Peter Selinger 2001-2013
</metadata>
<g transform="translate(0.000000,512.000000) scale(0.100000,-0.100000)"
fill="#000000" stroke="none">
<path d="M0 2560 l0 -2560 2560 0 2560 0 0 2560 0 2560 -2560 0 -2560 0 0
-2560z m2931 1745 c269 -29 526 -99 734 -199 117 -56 138 -73 137 -109 -1 -33
-199 -510 -219 -524 -25 -19 -30 -18 -149 38 -131 62 -338 132 -454 153 -47 9
-98 18 -115 21 -58 11 -311 14 -385 4 -277 -36 -428 -140 -461 -319 -31 -170
71 -287 331 -378 47 -16 213 -60 370 -97 354 -84 484 -121 629 -179 355 -144
546 -352 601 -657 20 -108 14 -283 -14 -390 -43 -171 -108 -290 -225 -413
-252 -262 -616 -393 -1121 -401 -280 -5 -499 20 -750 86 -287 74 -628 234
-645 301 -4 17 26 94 104 268 60 134 117 252 125 262 24 27 50 22 124 -23 300
-181 684 -282 1042 -274 220 5 367 41 475 115 88 60 127 138 126 252 -1 175
-165 287 -561 382 -532 128 -649 161 -813 233 -301 132 -478 322 -548 588 -33
124 -31 336 4 469 49 184 139 333 276 457 204 185 521 309 856 335 44 4 82 8
84 10 10 8 332 0 442 -11z"/>
</g>
</svg>
